# AST/ASF file generated using VICON BodyLanguage
# -----------------------------------------------
:version 1.10
:name VICON
:units
  mass 1.0
  length 0.45
  angle deg
:documentation
   .ast/.asf automatically generated from VICON data using
   VICON BodyBuilder and BodyLanguage model FoxedUp or BRILLIANT.MOD
:root
   order TX TY TZ RX RY RZ
   axis XYZ
   position 0 0 0  
   orientation 0 0 0 
:bonedata
  begin
     id 1 
     name lhipjoint
     direction 0.661853 -0.702389 0.261917 
     length 2.64193 
     axis 0 0 0  XYZ
  end
  begin
     id 2 
     name lfemur
     direction 0.34202 -0.939693 0  
     length 7.01722  
     axis 0 0 20  XYZ
    dof rx ry rz
    limits (-160.0 20.0)
           (-70.0 70.0)
           (-60.0 70.0)
  end
  begin
     id 3 
     name ltibia
     direction 0.34202 -0.939693 0   
     length 8.25008   
     axis 0 0 20   XYZ
    dof rx
    limits (-10.0 170.0)
  end
  begin
     id 4 
     name lfoot
     direction 0.0709916 -0.195048 0.978221   
     length 2.31941   
     axis -90 7.62852e-016 20   XYZ
    dof rx rz
    limits (-45.0 90.0)
           (-70.0 20.0)
  end
  begin
     id 5 
     name ltoes
     direction 1.53586e-011 -4.22017e-011 1   
     length 1.16486   
     axis -90 7.62852e-016 20   XYZ
    dof rx
    limits (-90.0 20.0)
  end
  begin
     id 6 
     name rhipjoint
     direction -0.638185 -0.721362 0.268992   
     length 2.57244  
     axis 0 0 0  XYZ 
  end
  begin
     id 7 
     name rfemur
     direction -0.34202 -0.939693 0   
     length 7.07017   
     axis 0 0 -20   XYZ
    dof rx ry rz
    limits (-160.0 20.0)
           (-70.0 70.0)
           (-70.0 60.0)
  end
  begin
     id 8 
     name rtibia
     direction -0.34202 -0.939693 0   
     length 8.20386   
     axis 0 0 -20   XYZ
    dof rx
    limits (-10.0 170.0)
 end
 begin
     id 9 
     name rfoot
     direction -0.0822429 -0.225961 0.970658   
     length 2.32215  
     axis -90 -7.62852e-016 -20   XYZ
    dof rx rz
    limits (-45.0 90.0)
           (-20.0 70.0)
  end
  begin
     id 10 
     name rtoes
     direction -1.53597e-011 -4.21689e-011 1   
     length 1.16333   
     axis -90 -7.62852e-016 -20   XYZ
    dof rx
    limits (-90.0 20.0)
  end
  begin
     id 11 
     name lowerback
     direction -0.0131557 0.998589 -0.0514484   
     length 2.14993   
     axis 0 0 0   XYZ
    dof rx ry rz
    limits (-20.0 45.0)
           (-30.0 30.0)
           (-30.0 30.0)
  end
  begin
     id 12 
     name upperback
     direction -0.000776481 0.999993 0.00352685   
     length 2.15301   
     axis 0 0 0   XYZ
    dof rx ry rz
    limits (-20.0 45.0)
           (-30.0 30.0)
           (-30.0 30.0)
  end
  begin
     id 13 
     name thorax
     direction 0.00438186 0.999609 0.0276143   
     length 2.15424   
     axis 0 0 0   XYZ
    dof rx ry rz
    limits (-20.0 45.0)
           (-30.0 30.0)
           (-30.0 30.0)
  end
  begin
     id 14 
     name lowerneck
     direction -0.0488006 0.998094 0.0377807   
     length 1.90481   
     axis 0 0 0   XYZ
    dof rx ry rz
    limits (-20.0 45.0)
           (-30.0 30.0)
           (-30.0 30.0)
  end
  begin
     id 15 
     name upperneck
     direction 0.0443769 0.990702 -0.12861   
     length 1.91305   
     axis 0 0 0   XYZ
    dof rx ry rz
    limits (-20.0 45.0)
           (-30.0 30.0)
           (-30.0 30.0)
  end
  begin
     id 16
     name head
     direction 0.0165599 0.998647 -0.0492982  
     length 1.92369  
     axis 0 0 0   XYZ
    dof rx ry rz
    limits (-20.0 45.0)
           (-30.0 30.0)
           (-30.0 30.0)
  end
  begin
     id 17 
     name lclavicle
     direction 0.911936 0.410197 -0.0105506  
     length 3.52622  
     axis 0 0 0   XYZ
    dof ry rz
    limits (-20.0 10.0)
           (0.0 20.0)
  end
  begin
     id 18 
     name lhumerus
     direction 1 -4.48974e-011 -2.48591e-028   
     length 5.47651   
     axis 180 -30 -90   XYZ
    dof rx ry rz
    limits (-60.0 90.0)
           (-90.0 90.0)
           (-90.0 90.0)
  end
  begin
     id 19
     name lradius
     direction 1 -4.48938e-011 -4.40099e-027   
     length 3.09058   
     axis 180 -30 -90   XYZ
    dof rx
    limits (-10.0 170.0)
  end
  begin
     id 20
     name lwrist
     direction 1 -4.49042e-011 -2.99852e-027   
     length 1.54529   
     axis 1.95339e-015 90 90   XYZ
    dof ry
    limits (-180.0 0.0)
 end
  begin
     id 21 
     name lhand
     direction 1 -4.48815e-011 -5.98193e-027   
     length 0.771611   
     axis 3.82337e-015 90 90   XYZ
    dof rx rz
    limits (-90.0 90.0)
           (-45.0 45.0)
  end
  begin
     id 22 
     name lfingers
     direction 1 -4.49034e-011 -1.1993e-026   
     length 0.622093   
     axis 7.64668e-015 90 90   XYZ
    dof rx
    limits (0.0 90.0)
  end
  begin
     id 23
     name lthumb
     direction 0.707107 -6.34867e-011 0.707107   
     length 0.893204   
     axis -90 45 -1.62303e-014   XYZ
    dof rx rz
    limits (-45.0 45.0)
           (-45.0 45.0)
  end
  begin
     id 24 
     name rclavicle
     direction -0.93442 0.355634 -0.0195692   
     length 3.62463  
     axis 0 0 0   XYZ 
    dof ry rz
    limits (-10.0 20.0)
           (-20.0 0.0)
  end
  begin
     id 25 
     name rhumerus
     direction -1 -4.48957e-011 -1.19147e-027  
     length 5.14182   
     axis 180 30 90   XYZ
    dof rx ry rz
    limits (-90.0 60.0)
           (-90.0 90.0)
           (-90.0 90.0)
  end
  begin
     id 26 
     name rradius
     direction -1 -4.48952e-011 -3.81062e-027   
     length 3.35565   
     axis 180 30 90   XYZ
    dof rx
    limits (-10.0 170.0)
  end
  begin
     id 27 
     name rwrist
     direction -1 -4.48973e-011 -2.99621e-027   
     length 1.67782   
     axis 1.95339e-015 -90 -90   XYZ
    dof ry
    limits (-180.0 0.0)
  end
  begin
     id 28
     name rhand
     direction -1 -4.48895e-011 -5.98727e-027   
     length 0.801042   
     axis 3.82337e-015 -90 -90   XYZ
    dof rx rz
    limits (-90.0 90.0)
           (-45.0 45.0)
  end
  begin
     id 29
     name rfingers
     direction -1 -4.49065e-011 -1.19972e-026   
     length 0.645821   
     axis 7.64668e-015 -90 -90   XYZ
    dof rx
    limits (0.0 90.0)
  end
  begin
     id 30
     name rthumb
     direction -0.707107 -6.34957e-011 0.707107   
     length 0.927273   
     axis -90 -45 1.62303e-014   XYZ
    dof rx rz
    limits (-45.0 45.0)
           (-45.0 45.0)
  end
:hierarchy
  begin
    root lhipjoint rhipjoint lowerback
    lhipjoint lfemur
    lfemur ltibia
    ltibia lfoot
    lfoot ltoes
    rhipjoint rfemur
    rfemur rtibia
    rtibia rfoot
    rfoot rtoes
    lowerback upperback
    upperback thorax
    thorax lowerneck lclavicle rclavicle
    lowerneck upperneck
    upperneck head
    lclavicle lhumerus
    lhumerus lradius
    lradius lwrist
    lwrist lhand lthumb
    lhand lfingers
    rclavicle rhumerus
    rhumerus rradius
    rradius rwrist
    rwrist rhand rthumb
    rhand rfingers
  end

#!OML:ASF E:\Style4\Style4.ASF
:FULLY-SPECIFIED
:DEGREES
144
root -1.47025 17.9257 -1.00687 6.68449 9.01325 5.32804
lowerback 11.3566 2.23445 3.89874
upperback 7.10449 3.33175 1.33473
thorax 1.21036 1.77735 -1.12987
lowerneck 6.89262 -8.3323 -3.62698
upperneck 4.23728 -11.2384 -0.524247
head 0.358731 -5.62716 0.588768
rclavicle -5.88403e-014 -9.54166e-015
rhumerus 73.3731 -12.3984 -31.7625
rradius 39.5387
rwrist -0.563099
rhand 49.6272 -1.45176
rfingers 7.12502
rthumb 69.7058 1.8968
lclavicle -5.88403e-014 -9.54166e-015
lhumerus -66.3196 -26.9871 97.5221
lradius 83.1682
lwrist 45.9861
lhand -7.19265 36.0879
lfingers 7.12502
lthumb 18.6855 65.2105
rfemur -20.9501 -6.22518 19.6772
rtibia 34.0369
rfoot -19.8114 -22.9268
rtoes -1.7286
lfemur -18.0723 -3.60926 -17.8114
ltibia 22.8073
lfoot -9.12816 3.89617
ltoes -18.0517
145
root -1.46255 17.9281 -1.00891 6.64379 8.94679 5.3002
lowerback 11.3631 2.25544 3.95546
upperback 7.09356 3.36481 1.29626
thorax 1.20312 1.79612 -1.2049
lowerneck 6.90406 -8.34271 -3.58079
upperneck 4.20919 -11.2512 -0.464159
head 0.349436 -5.63291 0.601222
rclavicle -9.54166e-015 4.77083e-015
rhumerus 73.6286 -12.547 -32.1135
rradius 39.2551
rwrist -0.318644
rhand 49.6588 -1.18773
rfingers 7.12502
rthumb 69.7267 2.22464
lclavicle -9.54166e-015 4.77083e-015
lhumerus -66.2653 -26.9392 97.3918
lradius 83.1745
lwrist 46.0798
lhand -7.24121 36.0541
lfingers 7.12502
lthumb 18.6388 65.1812
rfemur -20.8621 -6.12436 19.6643
rtibia 33.9279
rfoot -19.7574 -22.9334
rtoes -1.79654
lfemur -17.8829 -3.58885 -17.8242
ltibia 22.5653
lfoot -9.15778 4.01213
ltoes -17.6103
146
root -1.45676 17.9284 -1.01199 6.66792 8.88075 5.27644
lowerback 11.3155 2.29833 3.95879
upperback 7.07322 3.41955 1.28556
thorax 1.21114 1.82351 -1.22125
lowerneck 6.85369 -8.35095 -3.56887
upperneck 4.23292 -11.2601 -0.416969
head 0.367084 -5.63793 0.61047
rclavicle 3.18055e-014 -3.18055e-015
rhumerus 73.5259 -12.7083 -31.9551
rradius 39.3985
rwrist -0.499282
rhand 49.4757 -1.21733
rfingers 7.12502
rthumb 69.6047 1.82655
lclavicle 3.18055e-014 -3.18055e-015
lhumerus -66.2393 -26.9014 97.3128
lradius 83.185
lwrist 46.1577
lhand -7.33454 35.987
lfingers 7.12502
lthumb 18.549 65.1226
rfemur -20.8821 -5.97312 19.6568
rtibia 33.8675
rfoot -19.7794 -22.9538
rtoes -1.92298
lfemur -17.7749 -3.54934 -17.8436
ltibia 22.3076
lfoot -9.15614 4.18191
ltoes -17.2624
147
root -1.44972 17.9291 -1.01385 6.68591 8.82339 5.27672
lowerback 11.2485 2.32061 3.91741
upperback 7.03586 3.44275 1.2669
thorax 1.20758 1.83345 -1.21768
lowerneck 6.91604 -8.34782 -3.49551
upperneck 4.21392 -11.2535 -0.423241
head 0.346664 -5.63318 0.600887
rclavicle -9.62118e-014 -7.95139e-015
rhumerus 73.6218 -12.7664 -32.0801
rradius 39.3255
rwrist -0.489039
rhand 49.3614 -1.3166
rfingers 7.12502
rthumb 69.5281 1.49956
lclavicle -9.62118e-014 -7.95139e-015
lhumerus -66.2948 -26.7971 97.263
lradius 83.1806
lwrist 46.1688
lhand -7.31753 35.7538
lfingers 7.12502
lthumb 18.5654 64.8879
rfemur -20.8938 -5.91902 19.6193
rtibia 33.8204
rfoot -19.7754 -22.9166
rtoes -2.12881
lfemur -17.6479 -3.52724 -17.8944
ltibia 22.0565
lfoot -9.14868 4.30985
ltoes -16.7444
148
root -1.44183 17.93 -1.01558 6.69716 8.78314 5.36424
lowerback 11.1723 2.33587 3.80401
upperback 7.00378 3.44989 1.22801
thorax 1.21028 1.83381 -1.19288
lowerneck 7.07534 -8.35395 -3.35334
upperneck 4.12135 -11.2572 -0.532398
head 0.278458 -5.63099 0.557094
rclavicle -1.98785e-014 -1.90833e-014
rhumerus 74.0413 -12.787 -32.5991
rradius 38.8504
rwrist -0.0834987
rhand 49.4681 -1.22777
rfingers 7.12502
rthumb 69.5996 1.80091
lclavicle -1.98785e-014 -1.90833e-014
lhumerus -66.3701 -26.6202 97.1698
lradius 83.2505
lwrist 46.1558
lhand -7.16069 35.6904
lfingers 7.12502
lthumb 18.7163 64.81
rfemur -20.8826 -5.92868 19.487
rtibia 33.7886
rfoot -19.7182 -22.9014
rtoes -2.06549
lfemur -17.489 -3.53171 -18.0366
ltibia 21.7931
lfoot -9.20132 4.4179
ltoes -17.1559
149
root -1.43306 17.9298 -1.0178 6.70203 8.69617 5.35938
lowerback 11.0862 2.38518 3.82675
upperback 7.01596 3.5122 1.19617
thorax 1.27633 1.86751 -1.23924
lowerneck 7.01864 -8.36012 -3.31588
upperneck 4.14661 -11.2603 -0.571516
head 0.290965 -5.63237 0.53621
rclavicle -9.54166e-015 -6.36111e-015
rhumerus 74.2976 -12.931 -32.9557
rradius 38.5904
rwrist 0.29803
rhand 49.6689 -1.10603
rfingers 7.12502
rthumb 69.7334 2.32684
lclavicle -9.54166e-015 -6.36111e-015
lhumerus -66.3296 -26.554 97.0643
lradius 83.3402
lwrist 46.1195
lhand -7.22475 35.6827
lfingers 7.12502
lthumb 18.6547 64.8082
rfemur -20.8729 -5.85086 19.4527
rtibia 33.7523
rfoot -19.6969 -22.8877
rtoes -1.88232
lfemur -17.3171 -3.50251 -18.073
ltibia 21.5185
lfoot -9.2974 4.48364
ltoes -17.9174
150
root -1.42485 17.9308 -1.01966 6.68341 8.59666 5.32965
lowerback 11.0436 2.44823 3.8748
upperback 7.04044 3.59651 1.17611
thorax 1.33412 1.91284 -1.29102
lowerneck 6.84066 -8.34939 -3.36476
upperneck 4.21789 -11.2435 -0.542652
head 0.345406 -5.62641 0.541342
rclavicle 3.33958e-014 -2.06736e-014
rhumerus 74.3478 -13.1099 -33.0544
rradius 38.5854
rwrist 0.497662
rhand 49.7802 -1.02716
rfingers 7.12502
rthumb 69.8071 2.63195
lclavicle 3.33958e-014 -2.06736e-014
lhumerus -66.2662 -26.5606 97.0156
lradius 83.3896
lwrist 46.1138
lhand -7.28556 35.6552
lfingers 7.12502
lthumb 18.5962 64.7863
rfemur -20.8524 -5.783 19.4478
rtibia 33.7234
rfoot -19.6726 -22.8477
rtoes -1.86806
lfemur -17.1209 -3.48364 -18.0849
ltibia 21.2251
lfoot -9.32291 4.59416
ltoes -18.1525
151
root -1.41657 17.9313 -1.02259 6.68348 8.48976 5.33523
lowerback 10.9936 2.48796 3.86804
upperback 7.05231 3.6453 1.16671
thorax 1.37639 1.93797 -1.29819
lowerneck 6.76426 -8.34314 -3.4944
upperneck 4.20255 -11.2427 -0.490969
head 0.363136 -5.62834 0.573363
rclavicle 0 -6.36111e-015
rhumerus 74.3464 -13.2226 -32.9009
rradius 38.673
rwrist 0.437449
rhand 49.7037 -1.00643
rfingers 7.12502
rthumb 69.7565 2.49707
lclavicle 0 -6.36111e-015
lhumerus -66.212 -26.4659 97.0296
lradius 83.3625
lwrist 46.0686
lhand -7.21098 35.6923
lfingers 7.12502
lthumb 18.6679 64.8165
rfemur -20.864 -5.72416 19.4031
rtibia 33.7052
rfoot -19.5971 -22.8415
rtoes -1.991
lfemur -16.9539 -3.48879 -18.1297
ltibia 20.9617
lfoot -9.42615 4.71785
ltoes -17.5239
